<svg width="22" height="22" viewBox="0 0 22 22" fill="none" xmlns="http://www.w3.org/2000/svg">
<path d="M21.945 6.468C21.9272 5.55564 21.7542 4.65297 21.4334 3.79867C21.15 3.06783 20.7173 2.40412 20.1628 1.84995C19.6083 1.29578 18.9443 0.863336 18.2132 0.58025C17.3583 0.259763 16.4552 0.0868025 15.5423 0.06875C14.3659 0.0128333 13.9918 0 11.0046 0C8.01734 0 7.64324 0.0128333 6.46503 0.0641667C5.55399 0.0824858 4.65269 0.255448 3.79962 0.575667C3.06394 0.851917 2.39788 1.28625 1.84846 1.848C1.28955 2.39757 0.856597 3.06186 0.579478 3.795C0.259445 4.64918 0.0867554 5.55146 0.0687672 6.46342C0.0128365 7.64133 0 8.01533 0 11C0 13.9847 0.0128365 14.3605 0.0641827 15.5338C0.0819345 16.4462 0.25495 17.3489 0.575811 18.2032C0.859019 18.9342 1.29169 19.5981 1.84617 20.1525C2.40065 20.7068 3.06473 21.1394 3.79595 21.4225C4.65017 21.7434 5.55269 21.917 6.46503 21.9358C7.63866 21.9872 8.01275 22 11 22C13.9872 22 14.3613 21.9872 15.535 21.9358C16.4473 21.918 17.3498 21.745 18.2041 21.4243C18.9355 21.1416 19.5998 20.7092 20.1543 20.1548C20.7088 19.6004 21.1414 18.9363 21.4242 18.205C21.7445 17.3506 21.9175 16.448 21.9358 15.5357C21.9872 14.3623 22 13.9883 22 11.0018C22 8.01533 22 7.64133 21.9441 6.468H21.945ZM19.9636 15.4513C19.9564 16.1486 19.8282 16.8393 19.5849 17.4928C19.4015 17.9674 19.1209 18.3984 18.761 18.7582C18.4012 19.1179 17.97 19.3985 17.4953 19.5818C16.8415 19.8244 16.1507 19.9522 15.4534 19.9595C14.2926 20.0108 13.9442 20.0237 11.0083 20.0237C8.07235 20.0237 7.71935 20.0108 6.56314 19.9595C5.86577 19.9526 5.17488 19.8249 4.52121 19.5818C4.04294 19.4064 3.61043 19.1253 3.2559 18.7596C2.89021 18.4052 2.60828 17.9736 2.43069 17.4964C2.18806 16.8428 2.06026 16.1522 2.05293 15.455C2.00158 14.2945 1.98875 13.9462 1.98875 11.011C1.98875 8.07583 2.00158 7.72292 2.05293 6.567C2.05979 5.86981 2.18761 5.17909 2.43069 4.52558C2.6058 4.04685 2.88806 3.61448 3.2559 3.2615C3.61028 2.89578 4.04197 2.6139 4.51938 2.4365C5.17315 2.19372 5.86394 2.06564 6.56131 2.05792C7.7221 2.00658 8.07052 1.99375 11.0064 1.99375C13.9423 1.99375 14.2953 2.00658 15.4515 2.05792C16.1489 2.06513 16.8398 2.19322 17.4935 2.4365C17.9714 2.61289 18.4033 2.89491 18.7569 3.2615C19.1228 3.61614 19.4047 4.04802 19.5821 4.52558C19.8251 5.17916 19.9532 5.8698 19.9608 6.567C20.0122 7.7275 20.025 8.07583 20.025 11.011C20.025 13.9462 20.0122 14.2899 19.9608 15.4504L19.9636 15.4513Z" fill="white" fill-opacity="0.8"/>
<path d="M11.0045 5.35098C9.88648 5.35098 8.79359 5.68243 7.86402 6.30341C6.93445 6.9244 6.20993 7.80703 5.78209 8.83969C5.35425 9.87235 5.24231 11.0087 5.46042 12.1049C5.67853 13.2012 6.21689 14.2082 7.00743 14.9985C7.79797 15.7889 8.80518 16.3272 9.90169 16.5452C10.9982 16.7633 12.1347 16.6514 13.1676 16.2236C14.2005 15.7959 15.0834 15.0715 15.7045 14.1421C16.3256 13.2128 16.6571 12.1201 16.6571 11.0024C16.6566 9.50369 16.0609 8.06652 15.001 7.00678C13.941 5.94704 12.5035 5.35147 11.0045 5.35098ZM11.0045 14.6692C10.2791 14.6692 9.57 14.4541 8.96687 14.0512C8.36374 13.6483 7.89365 13.0756 7.61606 12.4056C7.33847 11.7356 7.26584 10.9983 7.40736 10.287C7.54887 9.57576 7.89817 8.9224 8.41109 8.40959C8.92401 7.89678 9.57751 7.54756 10.289 7.40608C11.0004 7.26459 11.7378 7.33721 12.408 7.61474C13.0781 7.89227 13.651 8.36225 14.0539 8.96524C14.4569 9.56824 14.672 10.2772 14.672 11.0024C14.672 11.9749 14.2856 12.9075 13.5978 13.5952C12.91 14.2828 11.9772 14.6692 11.0045 14.6692Z" fill="white" fill-opacity="0.8"/>
<path d="M18.2003 5.12689C18.2003 5.38799 18.1229 5.64322 17.978 5.86032C17.833 6.07741 17.6269 6.24661 17.3858 6.34652C17.1447 6.44644 16.8795 6.47258 16.6235 6.42165C16.3676 6.37071 16.1325 6.24498 15.9479 6.06036C15.7634 5.87573 15.6378 5.64051 15.5869 5.38443C15.536 5.12835 15.5621 4.86292 15.662 4.6217C15.7618 4.38048 15.9309 4.1743 16.1479 4.02924C16.3649 3.88419 16.62 3.80676 16.8809 3.80676C17.2309 3.80676 17.5664 3.94585 17.8139 4.19342C18.0613 4.44099 18.2003 4.77677 18.2003 5.12689Z" fill="white" fill-opacity="0.8"/>
</svg>
