<svg width="22" height="22" viewBox="0 0 22 22" fill="none" xmlns="http://www.w3.org/2000/svg">
<path d="M10.9999 0C6.51868 0 2.87305 3.64563 2.87305 8.1269C2.87305 9.60217 3.53467 11.1888 3.5624 11.2558C3.77609 11.763 4.19773 12.5508 4.50177 13.0126L10.074 21.4555C10.302 21.8016 10.6395 22 10.9999 22C11.3604 22 11.6979 21.8016 11.9259 21.456L17.4986 13.0126C17.8031 12.5508 18.2243 11.763 18.438 11.2558C18.4657 11.1893 19.1269 9.60265 19.1269 8.1269C19.1269 3.64563 15.4812 0 10.9999 0ZM17.5564 10.8848C17.3657 11.3394 16.9732 12.0723 16.7003 12.4863L11.1276 20.9296C11.0176 21.0965 10.9827 21.0965 10.8728 20.9296L5.30012 12.4863C5.02715 12.0723 4.63467 11.3389 4.44393 10.8843C4.4358 10.8647 3.82915 9.40426 3.82915 8.1269C3.82915 4.17292 7.04597 0.956106 10.9999 0.956106C14.9539 0.956106 18.1707 4.17292 18.1707 8.1269C18.1707 9.40617 17.5627 10.8704 17.5564 10.8848Z" fill="white"/>
<path d="M11 3.82491C8.62741 3.82491 6.69751 5.75528 6.69751 8.12738C6.69751 10.4995 8.62741 12.4299 11 12.4299C13.3726 12.4299 15.3025 10.4995 15.3025 8.12738C15.3025 5.75528 13.3726 3.82491 11 3.82491ZM11 11.4738C9.15518 11.4738 7.65362 9.97267 7.65362 8.12738C7.65362 6.2821 9.15518 4.78101 11 4.78101C12.8448 4.78101 14.3464 6.2821 14.3464 8.12738C14.3464 9.97267 12.8448 11.4738 11 11.4738Z" fill="white"/>
</svg>
