<svg width="17" height="17" viewBox="0 0 17 17" fill="none" xmlns="http://www.w3.org/2000/svg">
<path d="M12.2183 17C11.6696 17 11.1255 16.903 10.5934 16.7097C8.24942 15.8582 6.07371 14.4714 4.3014 12.6991C2.52909 10.9268 1.14225 8.75106 0.29079 6.40708C0.0171743 5.6538 -0.0635725 4.87621 0.0508741 4.09584C0.158083 3.36487 0.441227 2.65524 0.869729 2.04367C1.30012 1.4294 1.87392 0.918494 2.52905 0.56619C3.22769 0.190512 3.99023 0 4.79557 0C5.04605 0 5.26252 0.175007 5.31501 0.419903L6.14884 4.31112C6.18659 4.48732 6.13244 4.67066 6.00505 4.79809L4.58026 6.22284C5.92433 8.89512 8.10529 11.0761 10.7776 12.4201L12.2023 10.9954C12.3298 10.868 12.5131 10.8139 12.6893 10.8516L16.5805 11.6854C16.8254 11.7379 17.0004 11.9544 17.0004 12.2048C17.0004 13.0102 16.8099 13.7728 16.4342 14.4714C16.0819 15.1265 15.571 15.7003 14.9567 16.1307C14.3452 16.5592 13.6355 16.8424 12.9045 16.9496C12.6755 16.9832 12.4465 17 12.2183 17ZM4.37112 1.0857C3.30883 1.20297 2.36597 1.75976 1.73985 2.65339C1.03577 3.65824 0.871589 4.89417 1.2894 6.04435C2.92638 10.5507 6.44979 14.0741 10.9561 15.7111C12.1063 16.1289 13.3422 15.9647 14.3471 15.2606C15.2407 14.6345 15.7975 13.6916 15.9148 12.6294L12.7493 11.951L11.2613 13.439C11.103 13.5974 10.8624 13.6394 10.6598 13.5442C7.49933 12.0594 4.94106 9.50115 3.45628 6.34067C3.36109 6.13804 3.40312 5.89746 3.56146 5.73916L5.04943 4.25119L4.37112 1.0857Z" fill="white"/>
</svg>
