<svg width="22" height="22" viewBox="0 0 22 22" fill="none" xmlns="http://www.w3.org/2000/svg">
<path d="M15.8118 22C15.1017 22 14.3975 21.8745 13.709 21.6243C10.6756 20.5224 7.85995 18.7276 5.56637 16.4341C3.27279 14.1406 1.47806 11.3249 0.376173 8.29151C0.0220819 7.31668 -0.0824138 6.31039 0.0656934 5.30049C0.204434 4.35453 0.570856 3.4362 1.12539 2.64475C1.68237 1.84981 2.42493 1.18864 3.27275 0.732716C4.17686 0.246545 5.16368 0 6.20589 0C6.53004 0 6.81018 0.226479 6.87811 0.543404L7.95718 5.57909C8.00604 5.80712 7.93596 6.04438 7.77109 6.20929L5.92725 8.05309C7.66664 11.5113 10.4891 14.3337 13.9473 16.0731L15.7911 14.2293C15.956 14.0644 16.1933 13.9944 16.4213 14.0432L21.457 15.1223C21.774 15.1902 22.0004 15.4704 22.0004 15.7945C22.0004 16.8367 21.7538 17.8236 21.2676 18.7277C20.8117 19.5755 20.1505 20.3181 19.3556 20.875C18.5642 21.4296 17.6459 21.796 16.6999 21.9347C16.4034 21.9783 16.107 22 15.8118 22ZM5.6566 1.40502C4.28187 1.55678 3.0617 2.27734 2.25142 3.43379C1.34027 4.73419 1.12779 6.33363 1.66849 7.8221C3.78694 13.6538 8.34664 18.2135 14.1784 20.332C15.6668 20.8727 17.2662 20.6602 18.5667 19.749C19.7231 18.9388 20.4437 17.7186 20.5955 16.3439L16.4989 15.4661L14.5733 17.3917C14.3684 17.5966 14.0571 17.651 13.7949 17.5278C9.70487 15.6063 6.39417 12.2956 4.47269 8.20558C4.3495 7.94335 4.4039 7.63201 4.60881 7.42714L6.53442 5.50154L5.6566 1.40502Z" fill="#CA2026"/>
</svg>
