<svg width="16" height="12" viewBox="0 0 16 12" fill="none" xmlns="http://www.w3.org/2000/svg">
<path d="M14.5 0H1.50001C0.672854 0 0 0.672854 0 1.50001V10.5C0 11.3272 0.672854 12 1.50001 12H14.5C15.3271 12 16 11.3272 16 10.5V1.50001C16 0.672854 15.3271 0 14.5 0ZM14.5 0.999996C14.5679 0.999996 14.6325 1.01409 14.6916 1.03871L8 6.83839L1.30833 1.03871C1.36742 1.01412 1.43204 0.999996 1.49998 0.999996H14.5ZM14.5 11H1.50001C1.22414 11 0.999996 10.7759 0.999996 10.5V2.09521L7.67236 7.87793C7.76661 7.95945 7.8833 8 8 8C8.1167 8 8.23339 7.95949 8.32764 7.87793L15 2.09521V10.5C15 10.7759 14.7759 11 14.5 11Z" fill="white"/>
</svg>
