<svg width="22" height="22" viewBox="0 0 22 22" fill="none" xmlns="http://www.w3.org/2000/svg">
<path d="M5.5 6.8421H0.6875C0.380875 6.8421 0.11275 7.04423 0.0275 7.33848C-0.05775 7.6341 0.061875 7.94898 0.32175 8.11123C0.32725 8.11535 0.7975 8.42198 1.16188 8.98023C0.40975 9.93585 0 11.1101 0 12.3421C0 15.3753 2.46675 17.8421 5.5 17.8421C8.53325 17.8421 11 15.3753 11 12.3421C11 9.30885 8.53325 6.8421 5.5 6.8421ZM5.5 16.4671C3.22575 16.4671 1.375 14.6163 1.375 12.3421C1.375 11.2943 1.77238 10.3002 2.4915 9.54398C2.68537 9.34048 2.73625 9.0421 2.62075 8.78635C2.52725 8.5801 2.42 8.38898 2.30588 8.2171H5.5C7.77425 8.2171 9.625 10.0679 9.625 12.3421C9.625 14.6163 7.77425 16.4671 5.5 16.4671Z" fill="white" fill-opacity="0.8"/>
<path d="M12.9566 14.5366C12.65 14.3152 12.221 14.3785 11.9955 14.6892L11.0357 16.012L9.98936 14.67C9.75561 14.3702 9.32248 14.3152 9.02411 14.5504C8.72573 14.7841 8.67211 15.2159 8.90586 15.5156L10.5146 17.5781C10.6452 17.7445 10.8446 17.8421 11.0564 17.8421C11.0605 17.8421 11.0646 17.8421 11.0687 17.8421C11.2846 17.838 11.4867 17.7335 11.6119 17.5589L13.1079 15.4964C13.3306 15.1897 13.2646 14.7594 12.9566 14.5366Z" fill="white" fill-opacity="0.8"/>
<path d="M18.3383 7.02219C14.1556 3.20382 7.84434 3.20244 3.66159 7.02219C3.38109 7.27794 3.36047 7.71244 3.61759 7.99294C3.87334 8.27482 4.30784 8.2927 4.58834 8.03694C8.24447 4.69982 13.7568 4.69982 17.4116 8.03694C17.5436 8.15794 17.71 8.21707 17.875 8.21707C18.062 8.21707 18.2476 8.14144 18.3823 7.99294C18.6395 7.71244 18.6188 7.27794 18.3383 7.02219Z" fill="white" fill-opacity="0.8"/>
<path d="M5.5 9.5921C3.98337 9.5921 2.75 10.8255 2.75 12.3421C2.75 13.8587 3.98337 15.0921 5.5 15.0921C7.01662 15.0921 8.25 13.8587 8.25 12.3421C8.25 10.8255 7.01662 9.5921 5.5 9.5921ZM5.5 13.7171C4.74238 13.7171 4.125 13.1011 4.125 12.3421C4.125 11.5845 4.74238 10.9671 5.5 10.9671C6.25763 10.9671 6.875 11.5845 6.875 12.3421C6.875 13.1011 6.25763 13.7171 5.5 13.7171Z" fill="white" fill-opacity="0.8"/>
<path d="M5.52763 11.6546H5.51388C5.13438 11.6546 4.83325 11.9626 4.83325 12.3421C4.83325 12.7216 5.14813 13.0296 5.52763 13.0296C5.90713 13.0296 6.21513 12.7216 6.21513 12.3421C6.21513 11.9626 5.90713 11.6546 5.52763 11.6546Z" fill="white" fill-opacity="0.8"/>
<path d="M20.8368 8.98023C21.2011 8.42335 21.6741 8.1126 21.6782 8.11123C21.9381 7.9476 22.0577 7.63273 21.9725 7.33848C21.8886 7.04423 21.6191 6.8421 21.3125 6.8421H16.5C13.4667 6.8421 11 9.30885 11 12.3421C11 15.3753 13.4667 17.8421 16.5 17.8421C19.5332 17.8421 22 15.3753 22 12.3421C22 11.1115 21.5903 9.93585 20.8368 8.98023ZM16.5 16.4671C14.2257 16.4671 12.375 14.6163 12.375 12.3421C12.375 10.0679 14.2257 8.2171 16.5 8.2171H19.6941C19.58 8.38898 19.4727 8.5801 19.3792 8.78635C19.2651 9.0421 19.3146 9.34185 19.5085 9.54398C20.229 10.3016 20.625 11.2943 20.625 12.3421C20.625 14.6163 18.7743 16.4671 16.5 16.4671Z" fill="white" fill-opacity="0.8"/>
<path d="M16.5 9.5921C14.9834 9.5921 13.75 10.8255 13.75 12.3421C13.75 13.8587 14.9834 15.0921 16.5 15.0921C18.0166 15.0921 19.25 13.8587 19.25 12.3421C19.25 10.8255 18.0166 9.5921 16.5 9.5921ZM16.5 13.7171C15.741 13.7171 15.125 13.1011 15.125 12.3421C15.125 11.5845 15.741 10.9671 16.5 10.9671C17.259 10.9671 17.875 11.5845 17.875 12.3421C17.875 13.1011 17.259 13.7171 16.5 13.7171Z" fill="white" fill-opacity="0.8"/>
<path d="M16.5274 11.6546H16.5136C16.1341 11.6546 15.833 11.9626 15.833 12.3421C15.833 12.7216 16.1493 13.0296 16.5274 13.0296C16.9069 13.0296 17.2149 12.7216 17.2149 12.3421C17.2149 11.9626 16.9069 11.6546 16.5274 11.6546Z" fill="white" fill-opacity="0.8"/>
</svg>
