<svg width="22" height="22" viewBox="0 0 22 22" fill="none" xmlns="http://www.w3.org/2000/svg">
<path d="M10.9999 12.3917C4.38971 12.3917 0.749268 15.5188 0.749268 21.1971C0.749268 21.6406 1.1087 22 1.55218 22H20.4476C20.891 22 21.2505 21.6406 21.2505 21.1971C21.2505 15.5191 17.6101 12.3917 10.9999 12.3917ZM2.38431 20.3942C2.70013 16.1486 5.59464 13.9976 10.9999 13.9976C16.4051 13.9976 19.2997 16.1486 19.6158 20.3942H2.38431Z" fill="white"/>
<path d="M11.0001 0C7.96371 0 5.67407 2.3357 5.67407 5.43284C5.67407 8.62069 8.06331 11.2139 11.0001 11.2139C13.9369 11.2139 16.3261 8.62069 16.3261 5.4331C16.3261 2.3357 14.0365 0 11.0001 0ZM11.0001 9.60828C8.94864 9.60828 7.2799 7.73532 7.2799 5.4331C7.2799 3.21544 8.84453 1.60583 11.0001 1.60583C13.1212 1.60583 14.7203 3.25102 14.7203 5.4331C14.7203 7.73532 13.0516 9.60828 11.0001 9.60828Z" fill="white"/>
</svg>
