<svg width="120" height="120" viewBox="0 0 120 120" fill="none" xmlns="http://www.w3.org/2000/svg">
<g filter="url(#filter0_d)">
<circle cx="58" cy="58" r="30" fill="#00E676"/>
</g>
<path fill-rule="evenodd" clip-rule="evenodd" d="M70.6016 45.3461C67.2687 42.0093 62.8362 40.1709 58.1142 40.1689C48.3838 40.1689 40.4647 48.0878 40.4608 57.8208C40.4595 60.9321 41.2723 63.9692 42.8172 66.6463L40.3127 75.7939L49.671 73.3391C52.2496 74.7457 55.1526 75.4869 58.107 75.4878H58.1144C67.8436 75.4878 75.7636 67.5683 75.7673 57.8349C75.7692 53.1178 73.9347 48.6827 70.6016 45.3461ZM58.1142 72.5065H58.1081C55.4753 72.5054 52.8933 71.7979 50.6402 70.4613L50.1046 70.1432L44.5513 71.6L46.0335 66.1856L45.6845 65.6305C44.2158 63.2943 43.4402 60.5942 43.4415 57.8218C43.4445 49.7321 50.0268 43.1505 58.12 43.1505C62.0391 43.1518 65.7232 44.6799 68.4933 47.4533C71.2635 50.2267 72.7882 53.9132 72.7868 57.8338C72.7834 65.9242 66.2015 72.5065 58.1142 72.5065ZM66.1624 61.5174C65.7214 61.2965 63.5527 60.2298 63.1483 60.0823C62.7443 59.9351 62.4499 59.8618 62.1561 60.3032C61.8619 60.7446 61.0167 61.7383 60.7593 62.0325C60.5018 62.3269 60.2448 62.3639 59.8036 62.143C59.3625 61.9223 57.9413 61.4563 56.2564 59.9536C54.9452 58.784 54.06 57.3396 53.8026 56.8982C53.5456 56.4563 53.8004 56.2406 53.9961 55.998C54.4736 55.405 54.9517 54.7834 55.0987 54.4892C55.2459 54.1948 55.1722 53.9371 55.0618 53.7164C54.9517 53.4957 54.0696 51.3246 53.7021 50.4411C53.3438 49.5814 52.9804 49.6975 52.7095 49.684C52.4525 49.6712 52.1583 49.6686 51.8641 49.6686C51.5701 49.6686 51.0922 49.7788 50.6878 50.2207C50.2836 50.6623 49.1442 51.7292 49.1442 53.9004C49.1442 56.0715 50.7247 58.1689 50.9452 58.4633C51.1657 58.7577 54.0557 63.213 58.4803 65.1234C59.5327 65.5783 60.3542 65.8494 60.995 66.0527C62.0517 66.3885 63.013 66.3411 63.7732 66.2276C64.6208 66.1008 66.3827 65.1604 66.7506 64.1301C67.118 63.0997 67.118 62.2167 67.0076 62.0325C66.8975 61.8486 66.6034 61.7383 66.1624 61.5174Z" fill="white"/>
<defs>
<filter id="filter0_d" x="0" y="0" width="120" height="120" filterUnits="userSpaceOnUse" color-interpolation-filters="sRGB">
<feFlood flood-opacity="0" result="BackgroundImageFix"/>
<feColorMatrix in="SourceAlpha" type="matrix" values="0 0 0 0 0 0 0 0 0 0 0 0 0 0 0 0 0 0 127 0"/>
<feOffset dx="2" dy="2"/>
<feGaussianBlur stdDeviation="15"/>
<feColorMatrix type="matrix" values="0 0 0 0 0 0 0 0 0 0 0 0 0 0 0 0 0 0 0.1 0"/>
<feBlend mode="normal" in2="BackgroundImageFix" result="effect1_dropShadow"/>
<feBlend mode="normal" in="SourceGraphic" in2="effect1_dropShadow" result="shape"/>
</filter>
</defs>
</svg>
