<svg width="24" height="18" viewBox="0 0 24 18" fill="none" xmlns="http://www.w3.org/2000/svg">
<path d="M23.4689 2.51349L23.4989 2.70949C23.2089 1.68049 22.4259 0.886486 21.4309 0.597486L21.4099 0.592486C19.5389 0.0844864 12.0099 0.0844865 12.0099 0.0844865C12.0099 0.0844865 4.49993 0.0744864 2.60993 0.592486C1.59593 0.886486 0.811928 1.68049 0.526928 2.68849L0.521928 2.70949C-0.177072 6.36049 -0.182072 10.7475 0.552928 14.6565L0.521928 14.4585C0.811928 15.4875 1.59493 16.2815 2.58993 16.5705L2.61093 16.5755C4.47993 17.0845 12.0109 17.0845 12.0109 17.0845C12.0109 17.0845 19.5199 17.0845 21.4109 16.5755C22.4259 16.2815 23.2099 15.4875 23.4949 14.4795L23.4999 14.4585C23.8179 12.7605 23.9999 10.8065 23.9999 8.81048C23.9999 8.73748 23.9999 8.66349 23.9989 8.58949C23.9999 8.52149 23.9999 8.44049 23.9999 8.35948C23.9999 6.36248 23.8179 4.40849 23.4689 2.51349ZM9.60793 12.2355V4.94249L15.8739 8.59449L9.60793 12.2355Z" fill="white"/>
</svg>
