<svg width="16" height="16" viewBox="0 0 16 16" fill="none" xmlns="http://www.w3.org/2000/svg">
<path d="M15.9968 0.600875C15.9958 0.591 15.9939 0.581438 15.9925 0.571719C15.9908 0.559937 15.9895 0.548125 15.9872 0.536406C15.9849 0.525219 15.9819 0.514375 15.9791 0.503406C15.9766 0.493312 15.9743 0.483156 15.9713 0.473156C15.9681 0.462375 15.964 0.451969 15.9602 0.441438C15.9566 0.431469 15.9533 0.421406 15.9493 0.411563C15.9452 0.401719 15.9404 0.392312 15.9359 0.382719C15.9311 0.372594 15.9266 0.362375 15.9213 0.352437C15.9164 0.34325 15.9108 0.3345 15.9054 0.325563C15.8996 0.315844 15.8941 0.306 15.8878 0.2965C15.8812 0.286625 15.8738 0.277344 15.8667 0.267844C15.8608 0.259937 15.8553 0.251812 15.849 0.244094C15.8351 0.22725 15.8206 0.211031 15.8052 0.195625C15.805 0.1955 15.8049 0.195375 15.8048 0.19525C15.8047 0.195125 15.8046 0.195063 15.8045 0.194937C15.789 0.179531 15.7728 0.164937 15.756 0.151094C15.7483 0.14475 15.7401 0.13925 15.7322 0.133312C15.7227 0.126219 15.7134 0.118875 15.7036 0.112281C15.6941 0.105937 15.6842 0.100438 15.6745 0.094625C15.6655 0.0892813 15.6568 0.0836875 15.6476 0.07875C15.6377 0.0734375 15.6275 0.0689375 15.6173 0.0641562C15.6078 0.059625 15.5983 0.0548437 15.5885 0.05075C15.5787 0.0466875 15.5686 0.043375 15.5586 0.0398125C15.5481 0.0360312 15.5377 0.032 15.5269 0.02875C15.5169 0.0257188 15.5068 0.0235 15.4967 0.0209688C15.4857 0.0181875 15.4748 0.015125 15.4637 0.0129062C15.452 0.0105937 15.4402 0.0091875 15.4284 0.0075C15.4187 0.006125 15.4091 0.00425 15.3992 0.00328125C15.3773 0.00115625 15.3554 0 15.3334 0H10.6667C10.2985 0 10.0001 0.298469 10.0001 0.666656C10.0001 1.03484 10.2985 1.33331 10.6667 1.33331H13.7239L8.86201 6.19525C8.60166 6.45559 8.60166 6.87772 8.86201 7.13806C9.12235 7.39841 9.54447 7.39841 9.80482 7.13806L14.6667 2.27616V5.33334C14.6667 5.70153 14.9652 6 15.3334 6C15.7016 6 16.0001 5.70153 16.0001 5.33334V0.666719C16.0001 0.644719 15.9989 0.62275 15.9968 0.600875Z" fill="white"/>
<path d="M6.19525 8.86195L1.33334 13.7238V10.6667C1.33334 10.2985 1.03487 10 0.666687 10C0.298469 10 0 10.2985 0 10.6667V15.3333C0 15.3553 0.00115625 15.3772 0.0033125 15.3991C0.00428125 15.4089 0.006125 15.4185 0.00753125 15.4283C0.00921875 15.44 0.0105937 15.4519 0.0129375 15.4636C0.0151563 15.4748 0.0182188 15.4856 0.021 15.4965C0.0235313 15.5067 0.02575 15.5168 0.0287813 15.5268C0.0320312 15.5376 0.0360625 15.548 0.0398437 15.5585C0.0434375 15.5685 0.0467188 15.5785 0.0507812 15.5884C0.0548437 15.5982 0.0596562 15.6076 0.0641875 15.6172C0.0689687 15.6273 0.0734687 15.6376 0.0787812 15.6475C0.0837187 15.6567 0.0893125 15.6654 0.0946563 15.6743C0.100469 15.6841 0.105969 15.6939 0.112313 15.7034C0.118906 15.7133 0.12625 15.7226 0.133344 15.7321C0.139281 15.74 0.144781 15.7481 0.151125 15.7558C0.164969 15.7727 0.179562 15.7889 0.194969 15.8043C0.195094 15.8045 0.195156 15.8046 0.195281 15.8047C0.195406 15.8048 0.195531 15.8049 0.195656 15.805C0.211063 15.8204 0.227281 15.835 0.244125 15.8488C0.251844 15.8552 0.259969 15.8607 0.267875 15.8666C0.277375 15.8737 0.286656 15.8811 0.296531 15.8877C0.306 15.894 0.315844 15.8995 0.325594 15.9053C0.334531 15.9107 0.34325 15.9163 0.352469 15.9212C0.362406 15.9265 0.372625 15.931 0.38275 15.9358C0.392344 15.9403 0.401781 15.9451 0.411594 15.9492C0.421437 15.9532 0.431469 15.9565 0.441469 15.9601C0.452 15.9639 0.462406 15.9679 0.473188 15.9712C0.483187 15.9742 0.493344 15.9764 0.503438 15.979C0.514406 15.9818 0.52525 15.9848 0.536438 15.987C0.548156 15.9893 0.559969 15.9907 0.57175 15.9924C0.581469 15.9938 0.591062 15.9957 0.600906 15.9966C0.622781 15.9988 0.644719 15.9999 0.666656 15.9999H0.666687H5.33334C5.70153 15.9999 6 15.7015 6 15.3333C6 14.9651 5.70153 14.6666 5.33334 14.6666H2.27616L7.13809 9.8047C7.39844 9.54435 7.39844 9.12223 7.13809 8.86188C6.87775 8.60154 6.45563 8.6016 6.19525 8.86195Z" fill="white"/>
</svg>
