<svg width="20" height="20" viewBox="0 0 20 20" fill="none" xmlns="http://www.w3.org/2000/svg">
<path d="M8.56862 11.2344C8.56862 10.1698 7.70248 9.30362 6.63785 9.30362C5.57321 9.30362 4.70703 10.1698 4.70703 11.2344H5.8789C5.8789 10.8159 6.21938 10.4755 6.63785 10.4755C7.05631 10.4755 7.39675 10.8159 7.39675 11.2344H8.56862Z" fill="black"/>
<path d="M13.3624 9.30357C12.2978 9.30357 11.4316 10.1697 11.4316 11.2344H12.6035C12.6035 10.8159 12.944 10.4754 13.3624 10.4754C13.7809 10.4754 14.1214 10.8159 14.1214 11.2344H15.2932C15.2932 10.1697 14.4271 9.30357 13.3624 9.30357Z" fill="black"/>
<path d="M10 14.6633C9.25914 14.6633 8.56447 14.266 8.187 13.6264L7.17773 14.2219C7.76493 15.217 8.84637 15.8351 9.99998 15.8351C11.1536 15.8351 12.235 15.217 12.8222 14.2219L11.813 13.6263C11.4356 14.2659 10.7409 14.6633 10 14.6633Z" fill="black"/>
<path d="M19.2375 9.15891C18.8643 8.78614 18.3957 8.53965 17.887 8.44313C16.7884 5.04831 13.6015 2.71093 10 2.71093H9.60715C8.66374 2.71093 7.89622 1.94337 7.89622 1H6.72435C6.72435 1.64017 6.93435 2.23203 7.2887 2.71093H6.91743C5.97402 2.71093 5.2065 1.94337 5.2065 1H4.03463C4.03463 2.27326 4.86464 3.3556 6.01173 3.73624C4.19752 4.73364 2.77553 6.39595 2.11307 8.44313C1.60437 8.53965 1.13559 8.78622 0.762064 9.15934C0.270636 9.65129 0 10.305 0 11C0 11.6865 0.264825 12.3342 0.74574 12.8238C1.12159 13.2064 1.59626 13.4589 2.11307 13.5569C3.21158 16.9517 6.39842 19.2891 10 19.2891C13.6016 19.2891 16.7884 16.9517 17.8869 13.5569C18.4037 13.4589 18.8784 13.2064 19.2543 12.8238C19.7352 12.3342 20 11.6865 20 11C20 10.305 19.7294 9.65129 19.2375 9.15891ZM17.4253 12.4305L16.9855 12.4389L16.8707 12.8634C16.0342 15.9567 13.2089 18.1172 9.99996 18.1172C6.79107 18.1172 3.96578 15.9568 3.12929 12.8634L3.01446 12.4389L2.57473 12.4305C1.80117 12.4159 1.17183 11.7742 1.17183 11C1.17183 10.6177 1.32073 10.2582 1.59061 9.98797C1.85382 9.72504 2.20331 9.57639 2.57462 9.56943L3.01442 9.56117L3.12925 9.13654C3.96578 6.04326 6.79111 3.88284 10 3.88284C11.0591 3.88284 11.9207 4.74447 11.9207 5.80357C11.9207 6.86268 11.0591 7.72435 10 7.72435C8.9409 7.72435 8.07926 6.86272 8.07926 5.80361H6.90739C6.90739 7.50889 8.29472 8.89622 10 8.89622C11.7053 8.89622 13.0926 7.50889 13.0926 5.80361C13.0926 5.31831 12.98 4.85898 12.7799 4.4498C14.7453 5.28582 16.289 6.98549 16.8707 9.13658L16.9855 9.56121L17.4253 9.56947C17.7967 9.57642 18.1461 9.72508 18.4089 9.98754C18.6793 10.2582 18.8282 10.6178 18.8282 11C18.8281 11.7742 18.1988 12.4159 17.4253 12.4305Z" fill="black"/>
</svg>
