<svg width="20" height="20" viewBox="0 0 20 20" fill="none" xmlns="http://www.w3.org/2000/svg">
<path d="M19.938 1.26756C19.8132 0.827325 19.5125 0.458974 19.0923 0.230787C18.224 -0.242222 17.107 0.0352189 16.6021 0.849426L13.9342 5.15439C13.5503 5.77386 13.6223 6.54728 14.0965 7.09313L12.9226 8.71649L3.94689 17.1378C3.70976 17.3603 3.70976 17.721 3.94689 17.9435C5.01224 18.9431 6.41165 19.4429 7.81107 19.4429C9.21048 19.4429 10.6099 18.9431 11.6752 17.9435L13.822 15.9293C14.8542 14.9609 15.4226 13.6733 15.4226 12.3037C15.4226 11.0938 14.9787 9.94807 14.1636 9.02963L15.1354 7.68575C15.2582 7.70975 15.3822 7.72206 15.5056 7.72206C16.1338 7.72206 16.7459 7.41754 17.0838 6.87269L19.7519 2.56746C19.9972 2.17101 20.0633 1.70935 19.938 1.26756ZM14.2082 12.3037C14.2082 13.369 13.7661 14.3704 12.9633 15.1236L10.8165 17.1378C10.0137 17.891 8.94635 18.3058 7.81107 18.3058C6.8807 18.3058 5.99607 18.0273 5.26516 17.5122L13.3623 9.91504C13.9114 10.6008 14.2082 11.4308 14.2082 12.3037ZM18.7019 1.99492L16.034 6.29977C15.8657 6.57121 15.4931 6.66371 15.2053 6.50692C15.1573 6.48056 15.1148 6.45007 15.0788 6.41635C14.8845 6.234 14.8455 5.95056 14.984 5.72708L17.6519 1.42223C17.7644 1.24068 17.9683 1.13925 18.178 1.13925C18.2818 1.13925 18.3871 1.16416 18.4833 1.21656C18.6232 1.29255 18.7231 1.41475 18.7644 1.56053C18.8062 1.70795 18.7839 1.86235 18.7019 1.99492Z" fill="white"/>
<path d="M4.6376 12.3672C4.57187 12.0586 4.25201 11.8586 3.92312 11.9202C3.63887 11.9735 3.35823 11.8939 3.15327 11.7015C2.94827 11.5092 2.86332 11.2459 2.92018 10.9792C3.05601 10.342 2.8447 9.6873 2.35497 9.22781C1.8652 8.76832 1.16751 8.5701 0.488243 8.69754C0.159395 8.75925 -0.0538602 9.05936 0.0119095 9.3679C0.0776791 9.67644 0.397542 9.8766 0.72639 9.81482C1.01064 9.76161 1.29124 9.84117 1.49624 10.0335C1.70124 10.2258 1.78619 10.4891 1.72937 10.7558C1.59354 11.393 1.80481 12.0477 2.29454 12.5073C2.68653 12.875 3.21179 13.0755 3.75422 13.0754C3.88936 13.0754 4.02576 13.063 4.1613 13.0375C4.49007 12.9758 4.70337 12.6757 4.6376 12.3672Z" fill="white"/>
<path d="M6.78448 10.3529C6.71871 10.0444 6.39888 9.84426 6.07 9.90601C5.78583 9.95925 5.50519 9.87965 5.30019 9.68731C5.09519 9.49497 5.01024 9.23169 5.06706 8.965C5.20289 8.32779 4.99162 7.67307 4.50189 7.21358C4.01216 6.75405 3.31428 6.55579 2.63521 6.68327C2.30637 6.74498 2.09311 7.04509 2.15888 7.35363C2.22457 7.66217 2.54443 7.86226 2.87332 7.80059C3.15765 7.74724 3.43821 7.82694 3.64317 8.01929C3.84816 8.21163 3.93312 8.4749 3.87625 8.7416C3.74046 9.37881 3.95174 10.0335 4.44147 10.4931C4.83345 10.8608 5.35872 11.0612 5.90106 11.0612C6.03628 11.0612 6.1726 11.0487 6.30818 11.0233C6.63703 10.9615 6.85024 10.6614 6.78448 10.3529Z" fill="white"/>
<path d="M8.93075 8.3388C8.86498 8.03026 8.54512 7.83017 8.21627 7.89188C7.93206 7.94519 7.65142 7.86552 7.44642 7.67318C7.24143 7.48084 7.15647 7.21756 7.21334 6.95087C7.34921 6.31366 7.1379 5.65894 6.64817 5.19941C6.1584 4.73992 5.46052 4.54158 4.78145 4.66914C4.45265 4.73085 4.23935 5.03096 4.30512 5.3395C4.37085 5.64804 4.69067 5.84813 5.0196 5.78642C5.30376 5.73318 5.58449 5.81278 5.78944 6.00512C5.99444 6.19746 6.07939 6.46073 6.02253 6.72743C5.88666 7.36464 6.09797 8.01936 6.5877 8.47888C6.97969 8.84667 7.50499 9.04706 8.04729 9.04706C8.18251 9.04706 8.31883 9.0346 8.45441 9.00916C8.7833 8.94741 8.99652 8.6473 8.93075 8.3388Z" fill="white"/>
</svg>
