<svg width="8" height="20" viewBox="0 0 8 20" fill="none" xmlns="http://www.w3.org/2000/svg">
<path d="M5.73121 5.75133V0.590937C5.73121 0.26457 5.4666 0 5.14023 0H2.85961C2.53324 0 2.26867 0.26457 2.26867 0.590937V5.75133C0.92914 6.375 0.0556641 7.72195 0.0556641 9.22613V19.4091C0.0556641 19.7354 0.320235 20 0.646602 20H7.3532C7.67957 20 7.94414 19.7354 7.94414 19.4091V9.22613C7.94422 7.72195 7.0707 6.37504 5.73121 5.75133ZM3.45058 1.18187H4.5493V2.08133H3.45058V1.18187ZM1.23762 9.22613C1.23762 8.08449 1.96492 7.07387 3.04738 6.71125C3.28824 6.63059 3.45058 6.40496 3.45058 6.1509V3.26324H4.5493V6.1509C4.5493 6.40492 4.71164 6.63055 4.9525 6.71125C6.035 7.07391 6.7623 8.08453 6.7623 9.22613V10.0394H1.23762V9.22613ZM6.7623 18.8181H1.23762V16.1852H6.7623V18.8181ZM6.7623 15.0033H1.23762V11.2213H6.7623V15.0033Z" fill="black"/>
</svg>
