<svg width="24" height="24" viewBox="0 0 24 24" fill="none" xmlns="http://www.w3.org/2000/svg">
<path d="M22.5857 2.3275H8.90183C8.52562 1.07048 7.46876 0.162292 6.22616 0.162292C4.98356 0.162292 3.9267 1.07048 3.5505 2.3275H1.41455C0.918374 2.3275 0.516113 2.78005 0.516113 3.33825C0.516113 3.89645 0.918374 4.34899 1.41455 4.34899H3.55056C3.92676 5.60601 4.98362 6.5142 6.22622 6.5142C7.46882 6.5142 8.52568 5.60601 8.90189 4.34899H22.5858C23.0819 4.34899 23.4842 3.89645 23.4842 3.33825C23.4842 2.78005 23.0819 2.3275 22.5857 2.3275ZM6.22616 4.49272C5.66033 4.49272 5.19997 3.97481 5.19997 3.33825C5.19997 2.70168 5.66033 2.18378 6.22616 2.18378C6.792 2.18378 7.25236 2.70168 7.25236 3.33825C7.25236 3.97481 6.792 4.49272 6.22616 4.49272Z" fill="black"/>
<path d="M22.5857 10.9892H20.4497C20.0735 9.73222 19.0166 8.82404 17.774 8.82404C16.5315 8.82404 15.4746 9.73222 15.0984 10.9892H1.41455C0.918374 10.9892 0.516113 11.4418 0.516113 12C0.516113 12.5582 0.918374 13.0107 1.41455 13.0107H15.0984C15.4746 14.2678 16.5315 15.1759 17.7741 15.1759C19.0166 15.1759 20.0735 14.2678 20.4497 13.0107H22.5858C23.0819 13.0107 23.4842 12.5582 23.4842 12C23.4842 11.4418 23.0819 10.9892 22.5857 10.9892ZM17.7741 13.1545C17.2082 13.1545 16.7479 12.6366 16.7479 12C16.7479 11.3634 17.2082 10.8455 17.7741 10.8455C18.3399 10.8455 18.8003 11.3634 18.8003 12C18.8003 12.6366 18.3399 13.1545 17.7741 13.1545Z" fill="black"/>
<path d="M22.5857 19.6501H12.7512C12.3749 18.3931 11.3181 17.4849 10.0755 17.4849C8.83289 17.4849 7.77603 18.3931 7.39982 19.6501H1.41455C0.918374 19.6501 0.516113 20.1027 0.516113 20.6609C0.516113 21.2191 0.918374 21.6716 1.41455 21.6716H7.39982C7.77603 22.9286 8.83289 23.8368 10.0755 23.8368C11.3181 23.8368 12.3749 22.9286 12.7512 21.6716H22.5858C23.0819 21.6716 23.4842 21.2191 23.4842 20.6609C23.4842 20.1027 23.0819 19.6501 22.5857 19.6501ZM10.0755 21.8154C9.50965 21.8154 9.04929 21.2975 9.04929 20.6609C9.04929 20.0244 9.50965 19.5065 10.0755 19.5065C10.6413 19.5065 11.1017 20.0243 11.1017 20.6609C11.1017 21.2974 10.6413 21.8154 10.0755 21.8154Z" fill="black"/>
</svg>
