<svg width="20" height="18" viewBox="0 0 20 18" fill="none" xmlns="http://www.w3.org/2000/svg">
<path d="M19.9041 6.06309C19.7194 5.76767 19.3301 5.67784 19.0347 5.86249L12.713 9.8136V7.5835C12.713 6.82781 12.1866 6.15124 11.2238 5.65791L16.6192 1.70128C16.9002 1.49515 16.9609 1.1004 16.7549 0.819391C16.5487 0.538246 16.1538 0.477573 15.873 0.683633L9.79222 5.14289C9.06138 4.96511 8.24367 4.8705 7.39747 4.8705C6.0599 4.8705 4.79242 5.10633 3.82885 5.53468C2.70232 6.03528 2.08212 6.76282 2.08212 7.58343V10.797L0.257876 12.1348C-0.0231337 12.3409 -0.0838745 12.7358 0.122186 13.0168C0.245823 13.1853 0.437338 13.2746 0.631479 13.2746C0.760974 13.2746 0.891614 13.2348 1.00407 13.1525L2.08205 12.3619V12.6437C2.08205 13.4642 2.70232 14.1918 3.82872 14.6925C4.03956 14.7861 4.26555 14.87 4.50306 14.9448L2.37855 16.2727C2.08306 16.4574 1.99323 16.8466 2.17788 17.1421C2.29761 17.3336 2.5032 17.4386 2.71357 17.4386C2.82771 17.4386 2.9434 17.4077 3.0473 17.3427L6.31101 15.3029C6.66468 15.338 7.02818 15.3566 7.39747 15.3566C8.73505 15.3566 10.0025 15.1207 10.9662 14.6925C12.0926 14.1918 12.7129 13.4642 12.7129 12.6437V11.3017L19.7034 6.93266C19.9989 6.74781 20.0887 6.35865 19.9041 6.06309ZM7.39747 6.13239C9.83438 6.13239 11.4511 7.00579 11.4511 7.5835C11.4511 8.16114 9.83431 9.03461 7.39747 9.03461C4.96064 9.03461 3.34387 8.16114 3.34387 7.5835C3.34387 7.00572 4.96064 6.13239 7.39747 6.13239ZM3.34387 12.6436V9.38457C3.49323 9.47218 3.65491 9.55488 3.82879 9.63212C4.79256 10.0604 6.0599 10.2963 7.39747 10.2963C8.73505 10.2963 10.0025 10.0604 10.9662 9.63212C11.1401 9.55494 11.3017 9.47218 11.4511 9.38457V10.6022L6.02131 13.9958C4.37114 13.7515 3.34387 13.1038 3.34387 12.6436ZM11.4511 12.6436C11.4511 13.1454 10.2305 13.8701 8.31262 14.0518L11.4511 12.0902V12.6436Z" fill="black"/>
<path d="M6.33854 8.40417C6.62851 8.46855 7.0046 8.50404 7.39746 8.50404C7.79039 8.50404 8.16649 8.46855 8.45639 8.40417C9.18029 8.2433 9.33235 7.86909 9.33235 7.5835C9.33235 7.29784 9.18036 6.92357 8.45639 6.76269C8.16649 6.69825 7.79046 6.66283 7.39746 6.66283C7.00453 6.66283 6.62851 6.69825 6.33854 6.76269C5.61457 6.92363 5.46265 7.29784 5.46265 7.5835C5.46265 7.86909 5.61463 8.2433 6.33854 8.40417Z" fill="black"/>
</svg>
