<svg width="20" height="20" viewBox="0 0 20 20" fill="none" xmlns="http://www.w3.org/2000/svg">
<g clip-path="url(#clip0)">
<path d="M13.9124 8.56175C13.1066 7.38669 12.1135 6.70995 11.1847 6.7017C11.1821 6.7017 11.1674 6.70157 11.1674 6.70157C10.2364 6.70613 9.24 7.38341 8.43201 8.56175C7.68515 9.65087 7.23926 10.9692 7.23926 12.0884C7.23926 13.598 7.65485 14.747 8.47451 15.5034C9.14529 16.1225 10.0743 16.4508 11.1616 16.4539C11.1636 16.4539 11.1808 16.4539 11.1827 16.4539C12.2701 16.4508 13.1991 16.1226 13.8699 15.5034C14.6895 14.747 15.1051 13.598 15.1051 12.0884C15.1051 10.9692 14.6593 9.65087 13.9124 8.56175ZM11.1722 15.4487C9.83551 15.4473 8.24472 14.8625 8.24472 12.0884C8.24472 10.1661 9.88491 7.71307 11.1722 7.70704C11.751 7.71005 12.4826 8.25468 13.0832 9.13037C13.7102 10.0447 14.0996 11.1782 14.0996 12.0884C14.0996 14.8625 12.5089 15.4473 11.1722 15.4487Z" fill="black"/>
<path d="M18.2799 11.3543C18.0339 9.79358 17.1159 8.02523 16.1439 6.15305C15.5037 4.91968 14.8416 3.64435 14.4147 2.47519C13.7358 0.615881 12.5497 -0.242251 11.2247 0.155243C9.90455 -0.250496 7.56442 0.0164217 6.53375 2.45173C6.06601 3.557 5.28517 4.70652 4.45847 5.92354C3.21914 7.74819 1.93757 9.63485 1.67977 11.5093C1.32376 14.0972 1.80364 16.1667 3.10572 17.6603C4.87983 19.695 7.59251 19.9989 9.05158 19.9989C9.05158 19.9989 9.88497 20.0112 10.2437 19.956C10.5461 19.9842 10.8558 19.9989 11.1722 19.9989C11.1897 19.9989 11.2582 19.9989 11.2757 19.9989C13.6659 19.9989 15.6776 19.1853 16.9402 17.708C18.2519 16.1735 18.7026 14.0358 18.2799 11.3543ZM3.86364 16.9995C2.76091 15.7347 2.36127 13.9337 2.67578 11.6463C2.90148 10.0052 4.11581 8.21748 5.29019 6.48861C6.10784 5.28487 6.95344 4.04016 7.45972 2.84359C7.72671 2.21276 8.09002 1.78584 8.48637 1.50317C8.31785 1.78792 8.16576 2.11222 8.03324 2.47526C7.60639 3.64441 6.94432 4.91975 6.30404 6.15312C5.33209 8.0253 4.4141 9.79365 4.16809 11.3544C3.7454 14.0358 4.19611 16.1736 5.50771 17.7081C5.80593 18.0571 6.14652 18.3685 6.5235 18.6414C5.58245 18.3588 4.61512 17.8614 3.86364 16.9995ZM16.176 17.0547C14.7343 18.7415 12.4871 18.9934 11.2757 18.9934C11.2582 18.9934 11.1898 18.9934 11.1723 18.9934C9.96105 18.9934 7.71377 18.7415 6.27213 17.0547C5.16022 15.7539 4.78652 13.8887 5.16136 11.5109C5.38196 10.1117 6.30444 8.33478 7.19649 6.6163C7.85145 5.35465 8.52873 4.05009 8.97777 2.82C9.26701 2.02762 9.91185 0.76536 11.0049 1.14087C11.2095 1.21118 11.3252 1.18223 11.4432 1.14087C12.5339 0.758322 13.181 2.02769 13.4703 2.82C13.9193 4.05009 14.5966 5.35465 15.2515 6.6163C16.1437 8.33478 17.0661 10.1117 17.2867 11.5109C17.6616 13.8886 17.2879 15.7539 16.176 17.0547Z" fill="black"/>
<path d="M9.57207 11.9127C9.29436 11.9127 9.06934 11.6877 9.06934 11.41C9.06934 10.666 9.82974 9.18567 10.6962 8.90146C10.9602 8.81479 11.2441 8.9587 11.3306 9.2224C11.4172 9.48624 11.2735 9.77025 11.0097 9.85679C10.6429 9.97711 10.0748 10.9916 10.0748 11.41C10.0748 11.6877 9.84978 11.9127 9.57207 11.9127Z" fill="black"/>
</g>
<defs>
<clipPath id="clip0">
<rect width="20" height="20" fill="white"/>
</clipPath>
</defs>
</svg>
