<svg width="21" height="20" viewBox="0 0 21 20" fill="none" xmlns="http://www.w3.org/2000/svg">
<path d="M4.6711 19.4429C4.44245 19.4429 4.21539 19.3735 4.02161 19.2373C3.66064 18.983 3.49202 18.5458 3.59026 18.124L4.93287 12.3746L0.379591 8.49269C0.0448937 8.20865 -0.0829663 7.75882 0.0544474 7.34723C0.191861 6.93641 0.565728 6.64555 1.00838 6.60577L7.03293 6.07406L9.41482 0.655237C9.59045 0.25711 9.99043 0 10.4348 0C10.8792 0 11.2792 0.25711 11.4548 0.654308L13.8367 6.07406L19.8603 6.60577C20.3039 6.64462 20.6778 6.93641 20.8152 7.34723C20.9526 7.75805 20.8256 8.20865 20.4909 8.49269L15.9376 12.3738L17.2802 18.1231C17.3786 18.5458 17.2098 18.983 16.849 19.2365C16.489 19.4901 16.0089 19.5096 15.6298 19.2881L10.4348 16.2701L5.23986 19.2898C5.06424 19.3912 4.86855 19.4429 4.6711 19.4429ZM10.4348 14.97C10.6323 14.97 10.8278 15.0215 11.0036 15.1229L15.9064 17.9736L14.6392 12.547C14.5488 12.1608 14.6837 11.7576 14.9907 11.4963L19.29 7.8308L13.6019 7.32865C13.1923 7.29228 12.8401 7.04198 12.6801 6.67512L10.4348 1.56139L8.18686 6.67589C8.02858 7.04027 7.67637 7.29057 7.26779 7.32695L1.5789 7.8291L5.87805 11.4946C6.186 11.7566 6.3207 12.1591 6.22947 12.5462L4.96329 17.9727L9.86607 15.1229C10.0417 15.0215 10.2374 14.97 10.4348 14.97ZM6.98691 6.17885C6.98691 6.17885 6.98691 6.17978 6.98596 6.18056L6.98691 6.17885ZM13.881 6.17638L13.882 6.17808C13.882 6.17715 13.882 6.17715 13.881 6.17638Z" fill="black"/>
</svg>
